<mxfile host="app.diagrams.net" modified="2023-09-17T19:43:41.852Z" agent="Mozilla/5.0 (Windows NT 10.0; Win64; x64) AppleWebKit/537.36 (KHTML, like Gecko) Chrome/117.0.0.0 Safari/537.36 Edg/117.0.2045.31" version="21.7.2" etag="LZZK3X91XCtHy2MBoIHg" type="github">
  <diagram name="PÃ¡gina-1" id="sH9wNOt1V9Movgp6T2Ni">
    <mxGraphModel>
      <root>
        <mxCell id="0" />
        <mxCell id="1" parent="0" />
      </root>
    </mxGraphModel>
  </diagram>
</mxfile>
